<svg xmlns="http://www.w3.org/2000/svg" xmlns:xlink="http://www.w3.org/1999/xlink" width="116" height="48" viewBox="0 0 116 48">
  <defs>
    <clipPath id="clip-logo_3">
      <rect width="116" height="48"/>
    </clipPath>
  </defs>
  <g id="logo_3" clip-path="url(#clip-logo_3)">
    <g id="logosvg" transform="translate(3 2.008)">
      <path id="Path_15443" data-name="Path 15443" d="M53.21,16.768V.213h3.571v13.48H64.3v3.075Zm12.36,0V.213h3.571V16.768ZM71.238,8.49c0-5.653,4.023-8.467,8.4-8.467s7.142,2.436,7.356,5.983H83.468c-.261-1.774-1.726-2.932-3.856-2.932-2.814,0-4.991,1.987-4.991,5.416s2.175,5.582,4.92,5.582c2.057,0,4.091-1.491,4.091-3.027a.622.622,0,0,0-.662-.662H79.776V7.709h4.493a2.654,2.654,0,0,1,2.672,2.673v6.385H83.795V14.237a4.447,4.447,0,0,1-4.423,2.719c-4.233,0-8.135-2.814-8.135-8.467ZM99.91.213h3.571V16.768H99.91V9.839H93.1v6.929H89.551V.213H93.1V6.788H99.91Zm9.707,16.554V3.264h-4.9V.213H118.06V3.264h-4.9v13.5Zm24.494-3.334c.176-.239.332-.468.5-.683a3.121,3.121,0,0,1,2.258-1.526V8.167a3.353,3.353,0,0,0-2.336.676,20.564,20.564,0,0,0-1.409,1.513c-.3.335-.583.688-.883,1.042l-2.5-2.739c.41-.251.808-.471,1.182-.728a4.462,4.462,0,0,0,1.491-1.552,4.521,4.521,0,0,0,.369-3.048A3.763,3.763,0,0,0,130.473.438a5.229,5.229,0,0,0-4.294.029A4.069,4.069,0,0,0,123.9,4.958a5.578,5.578,0,0,0,1.125,2.292c.086.12.178.237.263.349-.391.256-.769.479-1.121.739a4.221,4.221,0,0,0-1.733,2.409,5.586,5.586,0,0,0-.083,2.107,4.451,4.451,0,0,0,1.674,2.956,5.514,5.514,0,0,0,2.724,1.118,6.778,6.778,0,0,0,4.51-.783c.368-.213.718-.459,1.084-.695.385.424.767.85,1.159,1.269a.38.38,0,0,0,.244.108c.664.014,1.328.017,1.992.02.459,0,.918,0,1.377,0l.024-.069q-1.512-1.669-3.032-3.347ZM128.257,2.548a1.581,1.581,0,0,1,1.7.984,1.794,1.794,0,0,1-.53,1.97,5.12,5.12,0,0,1-.676.485c-.293.178-.6.33-.927.5a4.939,4.939,0,0,1-1.1-2.143,1.562,1.562,0,0,1,1.531-1.8Zm.393,11.509a3.751,3.751,0,0,1-2.011-.168,2.012,2.012,0,0,1-.717-3.129,4.488,4.488,0,0,1,1.289-.947l3.2,3.5A4.363,4.363,0,0,1,128.65,14.057Zm21.582,27.232h-.574V40.9h1.614v.39H150.7v1.982h-.468V41.289Zm1.32-.39h.574l.727,1.752.742-1.752h.559v2.372h-.435v-1.73l-.735,1.73h-.252L152,41.541v1.73h-.444V40.9Z" transform="translate(-44.196 0)" fill="#231f20"/>
      <path id="Path_15444" data-name="Path 15444" d="M31.86,145.486a8.418,8.418,0,1,0-8.418-8.418A8.418,8.418,0,0,0,31.86,145.486Zm0-13.585a5.143,5.143,0,1,1-5.143,5.143A5.143,5.143,0,0,1,31.86,131.9ZM4.892,148.969Q2.367,138.995,0,128.984l3.595-.008q1.545,6.736,3.146,13.458,1.664-6.747,3.405-13.471l3-.005q1.654,6.236,3.366,12.455,1.588-6.238,3.232-12.465l3.595-.005q-2.541,8.97-4.953,17.974c-1.4.176-2.1.268-3.5.462q-1.662-6.04-3.249-12.1-1.69,6.541-3.31,13.1c-1.377.227-2.065.346-3.439.59Zm37.532-3.956q.013-8.043.025-16.083h3.785q3.316,5.278,6.649,10.547,0-5.273,0-10.547h3.547q.008,8,.015,16c-1.518-.03-2.277-.041-3.8-.051q-3.321-5.27-6.656-10.532-.005,5.288-.01,10.576c-1.423.027-2.135.046-3.558.093ZM59.4,145,59.38,128.93c2.223,0,3.336,0,5.558,0a8.238,8.238,0,0,1,8.589,8.455c.027,4.948-3.693,8.162-8.55,7.85-2.228-.119-3.342-.166-5.572-.237Zm3.551-2.873c.664.025,1,.037,1.658.066a4.964,4.964,0,0,0,5.316-4.952,5.385,5.385,0,0,0-5.34-5.309c-.662-.007-.994-.01-1.657-.015Q62.943,137.023,62.955,142.128Zm12.7,3.9q-.028-8.543-.058-17.085,5.629.008,11.257.015c0,1.355.007,2.031.01,3.386q-3.855-.1-7.71-.183c.005,1.476.007,2.212.012,3.686,2.46.107,3.69.166,6.148.3.005,1.35.007,2.024.01,3.375-2.458-.19-3.688-.276-6.148-.432l.014,4.061q3.99.368,7.967.8c0,1.367.007,2.052.01,3.419-3.827-.537-7.669-.974-11.516-1.342Zm26.512,3.864c-1.411-.28-2.116-.413-3.529-.673-.181-2.033-.271-3.046-.452-5.064a2.554,2.554,0,0,0-2.031-2.563c-1.282-.142-1.924-.212-3.209-.344l.015,6.993c-1.425-.23-2.136-.341-3.563-.551q-.025-9.364-.051-18.726l6.976.012c3.493.09,5.678,3.263,5.582,6.566-.059,2.023-.8,3.447-2.075,4.139a6.685,6.685,0,0,1,1.887,4.384c.18,2.321.269,3.486.447,5.828Zm-9.239-17.481c.005,2.114.007,3.171.012,5.285,1.284.095,1.926.144,3.21.247,1.63.13,2.336-1.137,2.334-2.611,0-1.443-.712-2.768-2.343-2.821-1.286-.042-1.928-.063-3.214-.1Z" transform="translate(0 -106.863)" fill="#004897"/>
    </g>
  </g>
</svg>
