<svg id="White" xmlns="http://www.w3.org/2000/svg" xmlns:xlink="http://www.w3.org/1999/xlink" width="182.933" height="72" viewBox="0 0 182.933 72">
  <defs>
    <clipPath id="clip-path">
      <rect id="Rectangle_9" data-name="Rectangle 9" width="182.933" height="72" fill="none"/>
    </clipPath>
  </defs>
  <g id="Group_10" data-name="Group 10" clip-path="url(#clip-path)">
    <path id="Path_9" data-name="Path 9" d="M53.214,27.909V.367h5.941V22.794H71.667v5.115ZM73.778.367h5.941V27.909H73.778Zm9.431,13.771C83.209,4.734,89.9.052,97.178.052c6.925,0,11.883,4.053,12.237,9.955h-5.863c-.433-2.951-2.872-4.879-6.413-4.879-4.682,0-8.3,3.305-8.3,9.01s3.62,9.286,8.184,9.286c3.423,0,6.807-2.479,6.807-5.036a1.033,1.033,0,0,0-1.1-1.1H97.414V12.839h7.476a4.416,4.416,0,0,1,4.446,4.446V27.909H104.1V23.7c-.9,2.715-3.817,4.525-7.358,4.525-7.043,0-13.535-4.682-13.535-14.086M130.907.367h5.941V27.909h-5.941V16.381H119.575V27.909h-5.9V.367h5.9V11.3h11.332Zm16.149,27.543V5.442h-8.145V.367H161.1V5.442h-8.145V27.909Zm40.752-5.547c.292-.4.552-.778.841-1.137.991-1.23,1.986-2.462,3.757-2.54V13.6a5.582,5.582,0,0,0-3.886,1.125,33.667,33.667,0,0,0-2.345,2.516c-.5.558-.97,1.144-1.467,1.734l-4.16-4.557c.681-.416,1.345-.784,1.967-1.211A7.391,7.391,0,0,0,185,10.623a7.522,7.522,0,0,0,.615-5.07,6.257,6.257,0,0,0-3.851-4.81,8.7,8.7,0,0,0-7.143.049,6.766,6.766,0,0,0-3.79,7.472,9.3,9.3,0,0,0,1.871,3.814c.144.2.3.394.436.58-.652.426-1.281.8-1.865,1.228a7.017,7.017,0,0,0-2.882,4.008,9.262,9.262,0,0,0-.137,3.506,7.408,7.408,0,0,0,2.785,4.919,9.173,9.173,0,0,0,4.531,1.859,11.289,11.289,0,0,0,7.5-1.3c.613-.355,1.195-.764,1.8-1.157.641.706,1.276,1.416,1.929,2.11a.635.635,0,0,0,.407.18c1.1.023,2.21.029,3.315.035.764,0,1.528,0,2.291,0l.04-.117-5.045-5.568M178.067,4.249A2.633,2.633,0,0,1,180.9,5.887a2.986,2.986,0,0,1-.881,3.279,8.788,8.788,0,0,1-1.125.807c-.488.3-1,.549-1.541.838a8.2,8.2,0,0,1-1.837-3.565,2.6,2.6,0,0,1,2.547-3M178.72,23.4a6.229,6.229,0,0,1-3.345-.278,3.348,3.348,0,0,1-1.192-5.206,7.441,7.441,0,0,1,2.145-1.576l5.326,5.825A7.266,7.266,0,0,1,178.72,23.4M214.627,68.7h-.955v-.649h2.686V68.7H215.4V72h-.776Zm2.195-.649h.955l1.209,2.915,1.235-2.915h.93V72h-.726V69.124L219.2,72h-.42l-1.222-2.876V72h-.738Z" transform="translate(-38.216 0)" fill="#fff"/>
    <path id="Path_10" data-name="Path 10" d="M53,156.663a14,14,0,1,0-14-14,14,14,0,0,0,14,14m0-22.6a8.558,8.558,0,1,1-8.558,8.558,8.558,8.558,0,0,1,8.558-8.558M8.141,162.455Q3.937,145.864,0,129.208l5.98-.013q2.57,11.206,5.234,22.39,2.769-11.222,5.664-22.411l5-.008q2.752,10.374,5.6,20.72,2.643-10.381,5.376-20.737l5.981-.008q-4.227,14.923-8.242,29.9c-2.328.293-3.491.447-5.817.771q-2.767-10.05-5.4-20.134-2.813,10.882-5.507,21.793c-2.29.378-3.435.574-5.722.982m62.44-6.582q.021-13.378.043-26.756l6.3,0q5.517,8.782,11.062,17.547,0-8.774-.006-17.548h5.9l.026,26.611c-2.526-.052-3.788-.068-6.315-.084q-5.524-8.768-11.073-17.52l-.017,17.6c-2.368.046-3.552.078-5.919.156m28.25-.018q-.02-13.369-.041-26.738l9.247,0a13.7,13.7,0,0,1,14.289,14.066c.044,8.232-6.144,13.58-14.225,13.061-3.707-.2-5.562-.276-9.271-.394m5.908-4.779c1.1.041,1.656.063,2.76.109a8.256,8.256,0,0,0,8.843-8.238,8.959,8.959,0,0,0-8.882-8.833l-2.755-.026q.017,8.494.035,16.988m21.134,6.482q-.048-14.211-.1-28.422,9.364.011,18.729.025c.007,2.254.01,3.38.017,5.633q-6.412-.172-12.825-.3l.021,6.134c4.092.178,6.138.277,10.228.493.007,2.245.011,3.368.018,5.613-4.089-.316-6.135-.459-10.228-.718.009,2.7.014,4.053.023,6.756q6.636.614,13.254,1.335c.007,2.275.01,3.413.017,5.688-6.367-.894-12.758-1.621-19.158-2.232m44.107,6.428c-2.346-.464-3.52-.688-5.87-1.12-.3-3.383-.451-5.068-.753-8.424-.2-2.326-1.534-4.06-3.379-4.265-2.135-.238-3.2-.353-5.339-.574l.025,11.633c-2.369-.382-3.555-.566-5.926-.915q-.042-15.577-.085-31.154l11.607.021c5.811.149,9.447,5.428,9.286,10.923-.1,3.366-1.334,5.735-3.452,6.886a11.117,11.117,0,0,1,3.139,7.293c.3,3.862.447,5.8.744,9.7M154.607,134.9c.008,3.517.012,5.276.019,8.793,2.137.158,3.206.24,5.342.41,2.71.216,3.885-1.892,3.883-4.342,0-2.4-1.184-4.606-3.9-4.694-2.139-.07-3.208-.1-5.347-.168" transform="translate(0 -92.394)" fill="#fff"/>
  </g>
</svg>
